# xmcd
#
# Track frame offsets:
#	150
#	21629
#	36451
#	53474
#	65783
#	85925
#	98690
#	122250
#	141937
#	161961
#	182393
#	200408
#	226595
#
# Disc length: 3370 seconds
#
# Revision: 1
# Processed by: cddbd v1.5.2PL0 Copyright (c) Steve Scherf et al.
# Submitted via: audiograbber 1.83.01
#
DISCID=ab0d280d
DTITLE=Grady - Y.U.So Shady
DYEAR=2008
DGENRE=Alternative Rock
TTITLE0=Ride like Hell
TTITLE1=Woman Got My Devil
TTITLE2=Joe Louis
TTITLE3=Three Minute Song
TTITLE4=Black or White
TTITLE5=Reach Out Yo Hand
TTITLE6=Tired All the Time
TTITLE7=Tommy Johnson
TTITLE8=Western Cowboy
TTITLE9=Hammer In My Hand
TTITLE10=Just About Sunrise
TTITLE11=Commit A Crime
TTITLE12=Gimme Back My Wig
EXTD=
EXTT0=
EXTT1=
EXTT2=
EXTT3=
EXTT4=
EXTT5=
EXTT6=
EXTT7=
EXTT8=
EXTT9=
EXTT10=
EXTT11=
EXTT12=
PLAYORDER=
